# xmcd
#
# Track frame offsets: 
#        150
#        46760
#        115417
#        162955
#        228072
#        262935
#
# Disc length: 4150 seconds
#
# Revision: 0
# Processed by: cddbd v1.5.2PL0 Copyright (c) Steve Scherf et al.
# Submitted via: ExactAudioCopy v1.0b1
#
DISCID=3e103406
DTITLE=Derek and The Dominos  - Soul Mates 1970-12-01 [Disc 1]
DYEAR=1900
DGENRE=
TTITLE0=Layla
TTITLE1=Why Does Love Got to Be So Sad?
TTITLE2=Blues Power
TTITLE3=Have You Ever Loved a Woman
TTITLE4=Bottle of Red Wine
TTITLE5=Got to Get Better in a Little While
EXTD=
EXTT0=
EXTT1=
EXTT2=
EXTT3=
EXTT4=
EXTT5=
PLAYORDER=
